<svg width="96" height="94" viewBox="0 0 96 94" fill="none" xmlns="http://www.w3.org/2000/svg">
<ellipse cx="48" cy="47" rx="47.5" ry="47" fill="#11DA57"/>
<path d="M21.5091 38.158C21.5091 39.034 21.7011 39.754 22.0851 40.318C22.4691 40.87 23.0991 41.146 23.9751 41.146C24.3351 41.146 24.7071 41.098 25.0911 41.002C25.4871 40.906 25.9731 40.744 26.5491 40.516L27.2151 42.388C26.5671 42.676 25.9671 42.88 25.4151 43C24.8751 43.12 24.3531 43.18 23.8491 43.18C22.8411 43.18 21.9951 42.964 21.3111 42.532C20.6391 42.1 20.1351 41.506 19.7991 40.75C19.4631 39.994 19.2951 39.13 19.2951 38.158V35.584C19.2951 34.612 19.4631 33.748 19.7991 32.992C20.1351 32.236 20.6391 31.648 21.3111 31.228C21.9951 30.796 22.8411 30.58 23.8491 30.58C24.3411 30.58 24.8511 30.64 25.3791 30.76C25.9071 30.868 26.4831 31.06 27.1071 31.336L26.4411 33.244C25.8891 33.016 25.4271 32.854 25.0551 32.758C24.6831 32.662 24.3231 32.614 23.9751 32.614C23.0991 32.614 22.4691 32.89 22.0851 33.442C21.7011 33.994 21.5091 34.708 21.5091 35.584V38.158ZM36.1104 43.09C35.4984 43.09 35.0064 42.964 34.6344 42.712C34.2744 42.46 34.0104 42.148 33.8424 41.776C33.3264 42.256 32.8284 42.61 32.3484 42.838C31.8684 43.066 31.3524 43.18 30.8004 43.18C29.9964 43.18 29.4024 42.922 29.0184 42.406C28.6464 41.89 28.4604 41.236 28.4604 40.444C28.4604 39.916 28.5564 39.454 28.7484 39.058C28.9524 38.65 29.2824 38.332 29.7384 38.104C30.1944 37.876 30.8184 37.762 31.6104 37.762C31.9224 37.762 32.2464 37.786 32.5824 37.834C32.9184 37.87 33.2544 37.918 33.5904 37.978V36.916C33.5904 36.412 33.4524 36.07 33.1764 35.89C32.9004 35.698 32.5284 35.602 32.0604 35.602C31.7004 35.602 31.3044 35.65 30.8724 35.746C30.4524 35.842 29.9964 35.992 29.5044 36.196L28.9104 34.432C30.1224 33.94 31.2204 33.694 32.2044 33.694C33.0924 33.694 33.7764 33.844 34.2564 34.144C34.7484 34.444 35.0904 34.84 35.2824 35.332C35.4744 35.824 35.5704 36.352 35.5704 36.916V40.426C35.5704 40.606 35.6184 40.78 35.7144 40.948C35.8224 41.104 36.0264 41.182 36.3264 41.182H36.5244V43.09H36.1104ZM30.4584 40.408C30.4584 40.732 30.5304 40.99 30.6744 41.182C30.8184 41.362 31.0284 41.452 31.3044 41.452C31.5804 41.452 31.8924 41.38 32.2404 41.236C32.5884 41.092 33.0384 40.756 33.5904 40.228V39.454C32.9664 39.346 32.3544 39.292 31.7544 39.292C31.2864 39.292 30.9504 39.388 30.7464 39.58C30.5544 39.772 30.4584 40.048 30.4584 40.408ZM43.4694 35.764C42.9054 35.764 42.3654 35.854 41.8494 36.034C41.3454 36.202 40.8594 36.478 40.3914 36.862V43H38.3214V33.874H40.2834V35.278C40.8954 34.702 41.4414 34.294 41.9214 34.054C42.4014 33.814 42.9174 33.694 43.4694 33.694V35.764ZM52.9684 38.914C52.9684 40.222 52.6444 41.26 51.9964 42.028C51.3484 42.796 50.4004 43.18 49.1524 43.18C47.8564 43.18 46.5424 42.82 45.2104 42.1V29.68H47.2804V35.08C47.8324 34.528 48.3064 34.162 48.7024 33.982C49.0984 33.79 49.5064 33.694 49.9264 33.694C50.8864 33.694 51.6304 34.066 52.1584 34.81C52.6984 35.554 52.9684 36.598 52.9684 37.942V38.914ZM49.3684 35.62C49.0804 35.62 48.7744 35.704 48.4504 35.872C48.1384 36.04 47.7484 36.37 47.2804 36.862V40.948C47.6044 41.08 47.8984 41.176 48.1624 41.236C48.4384 41.296 48.7084 41.326 48.9724 41.326C49.6444 41.326 50.1244 41.11 50.4124 40.678C50.7004 40.246 50.8444 39.658 50.8444 38.914V37.942C50.8444 37.138 50.7124 36.55 50.4484 36.178C50.1964 35.806 49.8364 35.62 49.3684 35.62ZM62.8246 37.888V38.968C62.8246 40.24 62.4766 41.26 61.7806 42.028C61.0846 42.796 60.1006 43.18 58.8286 43.18C57.5566 43.18 56.5726 42.796 55.8766 42.028C55.1806 41.26 54.8326 40.24 54.8326 38.968V37.888C54.8326 36.616 55.1746 35.602 55.8586 34.846C56.5546 34.078 57.5446 33.694 58.8286 33.694C60.1126 33.694 61.0966 34.078 61.7806 34.846C62.4766 35.602 62.8246 36.616 62.8246 37.888ZM60.7006 37.888C60.7006 37.156 60.5386 36.586 60.2146 36.178C59.8906 35.758 59.4286 35.548 58.8286 35.548C58.2286 35.548 57.7666 35.758 57.4426 36.178C57.1186 36.586 56.9566 37.156 56.9566 37.888V38.968C56.9566 39.7 57.1186 40.276 57.4426 40.696C57.7666 41.116 58.2286 41.326 58.8286 41.326C59.4286 41.326 59.8906 41.116 60.2146 40.696C60.5386 40.276 60.7006 39.7 60.7006 38.968V37.888ZM69.6096 35.62C69.3096 35.62 68.9676 35.692 68.5836 35.836C68.1996 35.98 67.7436 36.262 67.2156 36.682V43H65.1456V33.874H67.1076V35.098C67.6716 34.606 68.2056 34.252 68.7096 34.036C69.2136 33.808 69.7236 33.694 70.2396 33.694C71.1156 33.694 71.7816 33.976 72.2376 34.54C72.6936 35.092 72.9216 35.872 72.9216 36.88V43H70.8516V37.132C70.8516 36.124 70.4376 35.62 69.6096 35.62ZM23.3197 62.158C23.3197 63.034 23.5117 63.754 23.8957 64.318C24.2797 64.87 24.9097 65.146 25.7857 65.146C26.1457 65.146 26.5177 65.098 26.9017 65.002C27.2977 64.906 27.7837 64.744 28.3597 64.516L29.0257 66.388C28.3777 66.676 27.7777 66.88 27.2257 67C26.6857 67.12 26.1637 67.18 25.6597 67.18C24.6517 67.18 23.8057 66.964 23.1217 66.532C22.4497 66.1 21.9457 65.506 21.6097 64.75C21.2737 63.994 21.1057 63.13 21.1057 62.158V59.584C21.1057 58.612 21.2737 57.748 21.6097 56.992C21.9457 56.236 22.4497 55.648 23.1217 55.228C23.8057 54.796 24.6517 54.58 25.6597 54.58C26.1517 54.58 26.6617 54.64 27.1897 54.76C27.7177 54.868 28.2937 55.06 28.9177 55.336L28.2517 57.244C27.6997 57.016 27.2377 56.854 26.8657 56.758C26.4937 56.662 26.1337 56.614 25.7857 56.614C24.9097 56.614 24.2797 56.89 23.8957 57.442C23.5117 57.994 23.3197 58.708 23.3197 59.584V62.158ZM35.8054 59.764C35.2414 59.764 34.7014 59.854 34.1854 60.034C33.6814 60.202 33.1954 60.478 32.7274 60.862V67H30.6574V57.874H32.6194V59.278C33.2314 58.702 33.7774 58.294 34.2574 58.054C34.7374 57.814 35.2534 57.694 35.8054 57.694V59.764ZM44.5483 66.478C43.9243 66.73 43.3363 66.91 42.7843 67.018C42.2323 67.126 41.7103 67.18 41.2183 67.18C39.8623 67.18 38.8363 66.796 38.1403 66.028C37.4443 65.26 37.0963 64.24 37.0963 62.968V61.888C37.0963 61.036 37.2523 60.298 37.5643 59.674C37.8763 59.05 38.3203 58.564 38.8963 58.216C39.4723 57.868 40.1503 57.694 40.9303 57.694C41.5663 57.694 42.1603 57.826 42.7123 58.09C43.2763 58.342 43.7323 58.744 44.0803 59.296C44.4403 59.836 44.6203 60.532 44.6203 61.384C44.6203 61.636 44.6023 61.906 44.5663 62.194C44.5303 62.47 44.4703 62.764 44.3863 63.076H39.0943C39.1183 63.82 39.3043 64.378 39.6523 64.75C40.0003 65.122 40.5583 65.308 41.3263 65.308C41.7343 65.308 42.1543 65.26 42.5863 65.164C43.0303 65.068 43.4863 64.924 43.9543 64.732L44.5483 66.478ZM40.9303 59.44C40.3783 59.44 39.9463 59.62 39.6343 59.98C39.3343 60.328 39.1603 60.832 39.1123 61.492H42.5683C42.5803 61.432 42.5863 61.378 42.5863 61.33C42.5863 61.27 42.5863 61.216 42.5863 61.168C42.5863 60.592 42.4243 60.16 42.1003 59.872C41.7763 59.584 41.3863 59.44 40.9303 59.44ZM52.351 67V65.758C51.799 66.31 51.319 66.688 50.911 66.892C50.515 67.084 50.101 67.18 49.669 67.18C48.685 67.18 47.917 66.808 47.365 66.064C46.825 65.32 46.555 64.276 46.555 62.932V61.96C46.555 60.652 46.885 59.614 47.545 58.846C48.205 58.078 49.159 57.694 50.407 57.694C50.719 57.694 51.025 57.724 51.325 57.784C51.637 57.844 51.943 57.928 52.243 58.036V53.68H54.313V67H52.351ZM48.679 62.932C48.679 63.736 48.811 64.324 49.075 64.696C49.351 65.068 49.735 65.254 50.227 65.254C50.503 65.254 50.797 65.176 51.109 65.02C51.421 64.852 51.799 64.54 52.243 64.084V59.908C51.655 59.668 51.115 59.548 50.623 59.548C49.927 59.548 49.429 59.764 49.129 60.196C48.829 60.628 48.679 61.216 48.679 61.96V62.932ZM59.2892 56.146H57.1112V54.004H59.2892V56.146ZM59.2352 67H57.1652V57.874H59.2352V67ZM67.577 66.694C67.265 66.838 66.905 66.952 66.497 67.036C66.089 67.132 65.675 67.18 65.255 67.18C64.559 67.18 64.001 67.036 63.581 66.748C63.161 66.46 62.855 66.058 62.663 65.542C62.483 65.026 62.393 64.438 62.393 63.778V59.674H60.917V57.874H62.393V55.498H64.463V57.874H67.307V59.674H64.463V63.778C64.463 64.33 64.565 64.714 64.769 64.93C64.985 65.134 65.291 65.236 65.687 65.236C65.879 65.236 66.083 65.218 66.299 65.182C66.527 65.134 66.779 65.056 67.055 64.948L67.577 66.694ZM71.7973 65.38C72.2413 65.38 72.6073 65.308 72.8953 65.164C73.1833 65.008 73.3273 64.78 73.3273 64.48C73.3273 64.216 73.2313 64.012 73.0393 63.868C72.8593 63.712 72.5293 63.574 72.0493 63.454L71.0233 63.184C70.2313 62.98 69.6433 62.638 69.2593 62.158C68.8873 61.678 68.7013 61.108 68.7013 60.448C68.7013 59.668 68.9713 59.014 69.5113 58.486C70.0513 57.958 70.8853 57.694 72.0133 57.694C72.4693 57.694 72.9493 57.748 73.4533 57.856C73.9573 57.964 74.4853 58.138 75.0373 58.378L74.4433 60.142C73.9393 59.902 73.4833 59.734 73.0753 59.638C72.6673 59.542 72.3073 59.494 71.9953 59.494C71.1433 59.494 70.7173 59.782 70.7173 60.358C70.7173 60.586 70.7893 60.766 70.9333 60.898C71.0893 61.03 71.3713 61.15 71.7793 61.258L72.8053 61.528C73.6813 61.756 74.3173 62.104 74.7133 62.572C75.1213 63.04 75.3253 63.628 75.3253 64.336C75.3253 65.176 75.0373 65.86 74.4613 66.388C73.8973 66.916 73.0033 67.18 71.7793 67.18C70.7353 67.18 69.6373 66.94 68.4853 66.46L69.0433 64.75C69.6073 64.978 70.1173 65.14 70.5733 65.236C71.0293 65.332 71.4373 65.38 71.7973 65.38Z" fill="white"/>
</svg>
