<svg width="229" height="67" viewBox="0 0 229 67" fill="none" xmlns="http://www.w3.org/2000/svg">
<path d="M0 15C0 6.71573 6.71573 0 15 0H214C222.284 0 229 6.71573 229 15V52C229 60.2843 222.284 67 214 67H15C6.71573 67 0 60.2843 0 52V15Z" fill="#11DA57"/>
<path d="M22.4378 41V25.7273H32.55V28.3896H25.6668V32.0288H31.8788V34.6911H25.6668V41H22.4378ZM38.9969 41.2237C37.8385 41.2237 36.8367 40.9776 35.9916 40.4854C35.1514 39.9883 34.5026 39.2972 34.0452 38.4123C33.5878 37.5224 33.3591 36.4908 33.3591 35.3175C33.3591 34.1342 33.5878 33.1001 34.0452 32.2152C34.5026 31.3253 35.1514 30.6342 35.9916 30.142C36.8367 29.6449 37.8385 29.3963 38.9969 29.3963C40.1553 29.3963 41.1546 29.6449 41.9948 30.142C42.8399 30.6342 43.4912 31.3253 43.9486 32.2152C44.406 33.1001 44.6347 34.1342 44.6347 35.3175C44.6347 36.4908 44.406 37.5224 43.9486 38.4123C43.4912 39.2972 42.8399 39.9883 41.9948 40.4854C41.1546 40.9776 40.1553 41.2237 38.9969 41.2237ZM39.0118 38.7628C39.5388 38.7628 39.9788 38.6136 40.3318 38.3153C40.6847 38.0121 40.9507 37.5994 41.1297 37.0774C41.3137 36.5554 41.4056 35.9613 41.4056 35.2951C41.4056 34.6289 41.3137 34.0348 41.1297 33.5128C40.9507 32.9908 40.6847 32.5781 40.3318 32.2749C39.9788 31.9716 39.5388 31.82 39.0118 31.82C38.4798 31.82 38.0324 31.9716 37.6695 32.2749C37.3115 32.5781 37.0406 32.9908 36.8566 33.5128C36.6776 34.0348 36.5882 34.6289 36.5882 35.2951C36.5882 35.9613 36.6776 36.5554 36.8566 37.0774C37.0406 37.5994 37.3115 38.0121 37.6695 38.3153C38.0324 38.6136 38.4798 38.7628 39.0118 38.7628ZM46.7004 41V29.5455H49.7803V31.544H49.8996C50.1084 30.8331 50.4589 30.2962 50.9511 29.9332C51.4433 29.5653 52.01 29.3814 52.6514 29.3814C52.8105 29.3814 52.982 29.3913 53.1659 29.4112C53.3499 29.4311 53.5115 29.4585 53.6507 29.4933V32.3121C53.5015 32.2674 53.2952 32.2276 53.0317 32.1928C52.7682 32.158 52.5271 32.1406 52.3083 32.1406C51.841 32.1406 51.4234 32.2425 51.0555 32.4464C50.6926 32.6452 50.4042 32.9237 50.1904 33.2816C49.9816 33.6396 49.8772 34.0522 49.8772 34.5195V41H46.7004ZM70.3403 30.6641C70.2359 30.3011 70.0892 29.9805 69.9003 29.7021C69.7114 29.4187 69.4802 29.18 69.2068 28.9862C68.9383 28.7873 68.6301 28.6357 68.282 28.5312C67.939 28.4268 67.5587 28.3746 67.1411 28.3746C66.3605 28.3746 65.6744 28.5685 65.0828 28.9563C64.4962 29.3441 64.0388 29.9084 63.7107 30.6491C63.3825 31.3849 63.2185 32.2848 63.2185 33.3487C63.2185 34.4126 63.3801 35.3175 63.7032 36.0632C64.0264 36.8089 64.4838 37.3782 65.0754 37.771C65.667 38.1587 66.3655 38.3526 67.1709 38.3526C67.9017 38.3526 68.5257 38.2234 69.0427 37.9648C69.5647 37.7013 69.9624 37.331 70.2359 36.8537C70.5143 36.3764 70.6535 35.8121 70.6535 35.1609L71.3097 35.2578H67.3722V32.8267H73.7632V34.7507C73.7632 36.093 73.4798 37.2464 72.9131 38.2109C72.3463 39.1705 71.5658 39.9112 70.5715 40.4332C69.5771 40.9503 68.4387 41.2088 67.156 41.2088C65.7242 41.2088 64.4664 40.8931 63.3825 40.2617C62.2987 39.6254 61.4536 38.723 60.847 37.5547C60.2455 36.3814 59.9447 34.9893 59.9447 33.3786C59.9447 32.1406 60.1237 31.0369 60.4816 30.0675C60.8445 29.093 61.3517 28.2678 62.0029 27.5916C62.6542 26.9155 63.4124 26.4009 64.2774 26.0479C65.1425 25.695 66.0796 25.5185 67.0889 25.5185C67.9539 25.5185 68.7593 25.6452 69.5051 25.8988C70.2508 26.1474 70.912 26.5004 71.4887 26.9577C72.0704 27.4151 72.5452 27.9595 72.9131 28.5909C73.281 29.2173 73.5171 29.9084 73.6215 30.6641H70.3403ZM76.1291 41V29.5455H79.209V31.544H79.3283C79.5371 30.8331 79.8876 30.2962 80.3798 29.9332C80.872 29.5653 81.4387 29.3814 82.0801 29.3814C82.2392 29.3814 82.4107 29.3913 82.5946 29.4112C82.7786 29.4311 82.9402 29.4585 83.0794 29.4933V32.3121C82.9302 32.2674 82.7239 32.2276 82.4604 32.1928C82.1969 32.158 81.9558 32.1406 81.737 32.1406C81.2697 32.1406 80.8521 32.2425 80.4842 32.4464C80.1213 32.6452 79.8329 32.9237 79.6191 33.2816C79.4103 33.6396 79.3059 34.0522 79.3059 34.5195V41H76.1291ZM89.4088 41.2237C88.2306 41.2237 87.2164 40.9851 86.3662 40.5078C85.521 40.0256 84.8698 39.3445 84.4124 38.4645C83.955 37.5795 83.7263 36.533 83.7263 35.3249C83.7263 34.1467 83.955 33.1126 84.4124 32.2227C84.8698 31.3327 85.5136 30.6392 86.3438 30.142C87.1791 29.6449 88.1585 29.3963 89.282 29.3963C90.0377 29.3963 90.7412 29.5181 91.3925 29.7617C92.0487 30.0004 92.6205 30.3608 93.1077 30.843C93.5999 31.3253 93.9827 31.9318 94.2561 32.6626C94.5296 33.3885 94.6663 34.2386 94.6663 35.2131V36.0856H84.9941V34.1168H91.6759C91.6759 33.6594 91.5764 33.2543 91.3776 32.9013C91.1787 32.5483 90.9028 32.2724 90.5498 32.0735C90.2018 31.8697 89.7966 31.7678 89.3343 31.7678C88.852 31.7678 88.4244 31.8796 88.0516 32.1033C87.6837 32.3221 87.3953 32.6179 87.1865 32.9908C86.9777 33.3587 86.8708 33.7688 86.8659 34.2212V36.093C86.8659 36.6598 86.9703 37.1495 87.1791 37.5621C87.3928 37.9748 87.6936 38.293 88.0814 38.5167C88.4692 38.7404 88.9291 38.8523 89.461 38.8523C89.814 38.8523 90.1372 38.8026 90.4305 38.7031C90.7238 38.6037 90.9749 38.4545 91.1837 38.2557C91.3925 38.0568 91.5516 37.8132 91.661 37.5249L94.5992 37.7188C94.45 38.4247 94.1443 39.0412 93.6819 39.5682C93.2245 40.0902 92.6329 40.4979 91.907 40.7912C91.1862 41.0795 90.3534 41.2237 89.4088 41.2237ZM101.96 41.2237C100.781 41.2237 99.7671 40.9851 98.917 40.5078C98.0718 40.0256 97.4205 39.3445 96.9632 38.4645C96.5058 37.5795 96.2771 36.533 96.2771 35.3249C96.2771 34.1467 96.5058 33.1126 96.9632 32.2227C97.4205 31.3327 98.0644 30.6392 98.8946 30.142C99.7298 29.6449 100.709 29.3963 101.833 29.3963C102.589 29.3963 103.292 29.5181 103.943 29.7617C104.6 30.0004 105.171 30.3608 105.658 30.843C106.151 31.3253 106.533 31.9318 106.807 32.6626C107.08 33.3885 107.217 34.2386 107.217 35.2131V36.0856H97.5448V34.1168H104.227C104.227 33.6594 104.127 33.2543 103.928 32.9013C103.729 32.5483 103.454 32.2724 103.101 32.0735C102.753 31.8697 102.347 31.7678 101.885 31.7678C101.403 31.7678 100.975 31.8796 100.602 32.1033C100.234 32.3221 99.9461 32.6179 99.7373 32.9908C99.5285 33.3587 99.4216 33.7688 99.4166 34.2212V36.093C99.4166 36.6598 99.521 37.1495 99.7298 37.5621C99.9436 37.9748 100.244 38.293 100.632 38.5167C101.02 38.7404 101.48 38.8523 102.012 38.8523C102.365 38.8523 102.688 38.8026 102.981 38.7031C103.275 38.6037 103.526 38.4545 103.734 38.2557C103.943 38.0568 104.102 37.8132 104.212 37.5249L107.15 37.7188C107.001 38.4247 106.695 39.0412 106.233 39.5682C105.775 40.0902 105.184 40.4979 104.458 40.7912C103.737 41.0795 102.904 41.2237 101.96 41.2237ZM112.467 34.3778V41H109.29V29.5455H112.318V31.5664H112.452C112.706 30.9002 113.131 30.3732 113.727 29.9854C114.324 29.5927 115.047 29.3963 115.897 29.3963C116.693 29.3963 117.386 29.5703 117.978 29.9183C118.57 30.2663 119.03 30.7635 119.358 31.4098C119.686 32.0511 119.85 32.8168 119.85 33.7067V41H116.673V34.2734C116.678 33.5724 116.499 33.0256 116.136 32.6328C115.773 32.2351 115.274 32.0362 114.637 32.0362C114.21 32.0362 113.832 32.1282 113.504 32.3121C113.18 32.4961 112.927 32.7646 112.743 33.1175C112.564 33.4656 112.472 33.8857 112.467 34.3778ZM127.274 41V25.7273H133.299C134.458 25.7273 135.445 25.9485 136.26 26.391C137.075 26.8285 137.697 27.4375 138.124 28.218C138.557 28.9936 138.773 29.8885 138.773 30.9027C138.773 31.9169 138.554 32.8118 138.117 33.5874C137.679 34.3629 137.045 34.967 136.215 35.3995C135.39 35.832 134.391 36.0483 133.217 36.0483H129.377V33.4606H132.695C133.317 33.4606 133.829 33.3537 134.231 33.1399C134.639 32.9212 134.942 32.6204 135.141 32.2376C135.345 31.8498 135.447 31.4048 135.447 30.9027C135.447 30.3956 135.345 29.9531 135.141 29.5753C134.942 29.1925 134.639 28.8967 134.231 28.6879C133.824 28.4741 133.307 28.3672 132.68 28.3672H130.503V41H127.274ZM140.811 41V29.5455H143.891V31.544H144.01C144.219 30.8331 144.569 30.2962 145.061 29.9332C145.554 29.5653 146.12 29.3814 146.762 29.3814C146.921 29.3814 147.092 29.3913 147.276 29.4112C147.46 29.4311 147.622 29.4585 147.761 29.4933V32.3121C147.612 32.2674 147.406 32.2276 147.142 32.1928C146.879 32.158 146.637 32.1406 146.419 32.1406C145.951 32.1406 145.534 32.2425 145.166 32.4464C144.803 32.6452 144.515 32.9237 144.301 33.2816C144.092 33.6396 143.988 34.0522 143.988 34.5195V41H140.811ZM154.046 41.2237C152.887 41.2237 151.886 40.9776 151.04 40.4854C150.2 39.9883 149.551 39.2972 149.094 38.4123C148.637 37.5224 148.408 36.4908 148.408 35.3175C148.408 34.1342 148.637 33.1001 149.094 32.2152C149.551 31.3253 150.2 30.6342 151.04 30.142C151.886 29.6449 152.887 29.3963 154.046 29.3963C155.204 29.3963 156.203 29.6449 157.044 30.142C157.889 30.6342 158.54 31.3253 158.997 32.2152C159.455 33.1001 159.684 34.1342 159.684 35.3175C159.684 36.4908 159.455 37.5224 158.997 38.4123C158.54 39.2972 157.889 39.9883 157.044 40.4854C156.203 40.9776 155.204 41.2237 154.046 41.2237ZM154.061 38.7628C154.588 38.7628 155.028 38.6136 155.381 38.3153C155.734 38.0121 156 37.5994 156.179 37.0774C156.362 36.5554 156.454 35.9613 156.454 35.2951C156.454 34.6289 156.362 34.0348 156.179 33.5128C156 32.9908 155.734 32.5781 155.381 32.2749C155.028 31.9716 154.588 31.82 154.061 31.82C153.529 31.82 153.081 31.9716 152.718 32.2749C152.36 32.5781 152.089 32.9908 151.905 33.5128C151.726 34.0348 151.637 34.6289 151.637 35.2951C151.637 35.9613 151.726 36.5554 151.905 37.0774C152.089 37.5994 152.36 38.0121 152.718 38.3153C153.081 38.6136 153.529 38.7628 154.061 38.7628ZM161.749 29.5455H164.926V41.5668C164.926 42.4517 164.752 43.1676 164.404 43.7145C164.056 44.2614 163.556 44.6616 162.905 44.9151C162.259 45.1687 161.486 45.2955 160.586 45.2955C160.476 45.2955 160.372 45.293 160.273 45.288C160.168 45.288 160.059 45.2855 159.945 45.2805V42.7972C160.029 42.8022 160.104 42.8047 160.168 42.8047C160.228 42.8097 160.293 42.8121 160.362 42.8121C160.874 42.8121 161.232 42.7028 161.436 42.484C161.645 42.2702 161.749 41.9471 161.749 41.5146V29.5455ZM163.33 28.0689C162.863 28.0689 162.46 27.9123 162.122 27.5991C161.784 27.2809 161.615 26.9006 161.615 26.4581C161.615 26.0206 161.784 25.6452 162.122 25.332C162.46 25.0138 162.863 24.8548 163.33 24.8548C163.807 24.8548 164.213 25.0138 164.546 25.332C164.884 25.6452 165.053 26.0206 165.053 26.4581C165.053 26.9006 164.884 27.2809 164.546 27.5991C164.213 27.9123 163.807 28.0689 163.33 28.0689ZM172.691 41.2237C171.513 41.2237 170.499 40.9851 169.648 40.5078C168.803 40.0256 168.152 39.3445 167.695 38.4645C167.237 37.5795 167.009 36.533 167.009 35.3249C167.009 34.1467 167.237 33.1126 167.695 32.2227C168.152 31.3327 168.796 30.6392 169.626 30.142C170.461 29.6449 171.441 29.3963 172.564 29.3963C173.32 29.3963 174.023 29.5181 174.675 29.7617C175.331 30.0004 175.903 30.3608 176.39 30.843C176.882 31.3253 177.265 31.9318 177.538 32.6626C177.812 33.3885 177.949 34.2386 177.949 35.2131V36.0856H168.276V34.1168H174.958C174.958 33.6594 174.859 33.2543 174.66 32.9013C174.461 32.5483 174.185 32.2724 173.832 32.0735C173.484 31.8697 173.079 31.7678 172.616 31.7678C172.134 31.7678 171.707 31.8796 171.334 32.1033C170.966 32.3221 170.678 32.6179 170.469 32.9908C170.26 33.3587 170.153 33.7688 170.148 34.2212V36.093C170.148 36.6598 170.252 37.1495 170.461 37.5621C170.675 37.9748 170.976 38.293 171.364 38.5167C171.751 38.7404 172.211 38.8523 172.743 38.8523C173.096 38.8523 173.419 38.8026 173.713 38.7031C174.006 38.6037 174.257 38.4545 174.466 38.2557C174.675 38.0568 174.834 37.8132 174.943 37.5249L177.881 37.7188C177.732 38.4247 177.426 39.0412 176.964 39.5682C176.507 40.0902 175.915 40.4979 175.189 40.7912C174.468 41.0795 173.636 41.2237 172.691 41.2237ZM185.197 41.2237C184.024 41.2237 183.015 40.9751 182.169 40.478C181.329 39.9759 180.683 39.2798 180.23 38.3899C179.783 37.5 179.559 36.4759 179.559 35.3175C179.559 34.1442 179.786 33.1151 180.238 32.2301C180.695 31.3402 181.344 30.6467 182.184 30.1495C183.025 29.6474 184.024 29.3963 185.182 29.3963C186.181 29.3963 187.056 29.5778 187.807 29.9407C188.558 30.3036 189.152 30.8132 189.589 31.4695C190.027 32.1257 190.268 32.8963 190.313 33.7812H187.315C187.23 33.2095 187.007 32.7496 186.644 32.4016C186.286 32.0487 185.816 31.8722 185.234 31.8722C184.742 31.8722 184.312 32.0064 183.944 32.2749C183.581 32.5384 183.298 32.9237 183.094 33.4308C182.89 33.9379 182.788 34.5518 182.788 35.2727C182.788 36.0036 182.888 36.625 183.087 37.1371C183.29 37.6491 183.576 38.0394 183.944 38.3079C184.312 38.5763 184.742 38.7106 185.234 38.7106C185.597 38.7106 185.923 38.636 186.211 38.4869C186.505 38.3377 186.746 38.1214 186.935 37.8381C187.129 37.5497 187.255 37.2042 187.315 36.8015H190.313C190.263 37.6765 190.025 38.4471 189.597 39.1133C189.174 39.7745 188.59 40.2915 187.844 40.6644C187.099 41.0373 186.216 41.2237 185.197 41.2237ZM198.44 29.5455V31.9318H191.541V29.5455H198.44ZM193.108 26.8011H196.284V37.4801C196.284 37.7734 196.329 38.0021 196.419 38.1662C196.508 38.3253 196.632 38.4371 196.791 38.5018C196.956 38.5664 197.144 38.5987 197.358 38.5987C197.507 38.5987 197.657 38.5863 197.806 38.5614C197.955 38.5316 198.069 38.5092 198.149 38.4943L198.648 40.8583C198.489 40.908 198.266 40.9652 197.977 41.0298C197.689 41.0994 197.338 41.1417 196.926 41.1566C196.16 41.1864 195.489 41.0845 194.912 40.8509C194.34 40.6172 193.896 40.2543 193.577 39.7621C193.259 39.2699 193.103 38.6484 193.108 37.8977V26.8011ZM209.896 32.8118L206.988 32.9908C206.938 32.7422 206.831 32.5185 206.667 32.3196C206.503 32.1158 206.287 31.9542 206.018 31.8349C205.755 31.7106 205.439 31.6484 205.071 31.6484C204.579 31.6484 204.164 31.7528 203.826 31.9616C203.488 32.1655 203.319 32.4389 203.319 32.782C203.319 33.0554 203.428 33.2866 203.647 33.4755C203.865 33.6644 204.241 33.8161 204.773 33.9304L206.846 34.348C207.96 34.5767 208.79 34.9446 209.337 35.4517C209.884 35.9588 210.157 36.625 210.157 37.4503C210.157 38.201 209.936 38.8597 209.493 39.4265C209.056 39.9933 208.454 40.4357 207.689 40.7539C206.928 41.0671 206.05 41.2237 205.056 41.2237C203.54 41.2237 202.332 40.908 201.432 40.2766C200.537 39.6403 200.012 38.7752 199.858 37.6815L202.983 37.5174C203.077 37.9798 203.306 38.3327 203.669 38.5763C204.032 38.815 204.497 38.9343 205.064 38.9343C205.62 38.9343 206.068 38.8274 206.406 38.6136C206.749 38.3949 206.923 38.114 206.928 37.771C206.923 37.4826 206.801 37.2464 206.562 37.0625C206.324 36.8736 205.956 36.7294 205.459 36.63L203.475 36.2347C202.357 36.011 201.524 35.6232 200.977 35.0714C200.435 34.5195 200.164 33.8161 200.164 32.9609C200.164 32.2251 200.363 31.5913 200.761 31.0593C201.163 30.5273 201.728 30.1172 202.453 29.8288C203.184 29.5405 204.039 29.3963 205.019 29.3963C206.466 29.3963 207.604 29.7021 208.434 30.3136C209.27 30.9251 209.757 31.7578 209.896 32.8118Z" fill="white"/>
</svg>
